<!DOCTYPE svg PUBLIC "-//W3C//DTD SVG 1.1//EN" "http://www.w3.org/Graphics/SVG/1.1/DTD/svg11.dtd">
<!-- Uploaded to: SVG Repo, www.svgrepo.com, Transformed by: SVG Repo Mixer Tools -->
<svg width="800px" height="800px" viewBox="-0.5 0 25 25" fill="none" xmlns="http://www.w3.org/2000/svg">
<g id="SVGRepo_bgCarrier" stroke-width="0"/>
<g id="SVGRepo_tracerCarrier" stroke-linecap="round" stroke-linejoin="round"/>
<g id="SVGRepo_iconCarrier"> <path d="M7.05005 15.81L10.6201 12.11C10.8201 11.9 11.1501 11.91 11.3401 12.12L12.14 12.98C12.34 13.19 12.6701 13.19 12.8701 12.98L14.94 10.81" stroke="#ffffff" stroke-miterlimit="10" stroke-linecap="round" stroke-linejoin="round"/> <path d="M16.88 12.86L16.95 9.41C16.95 9.1 16.7001 8.84 16.4001 8.84L12.9301 8.86" stroke="#ffffff" stroke-miterlimit="10" stroke-linecap="round" stroke-linejoin="round"/> <path d="M12 22C17.2467 22 21.5 17.7467 21.5 12.5C21.5 7.25329 17.2467 3 12 3C6.75329 3 2.5 7.25329 2.5 12.5C2.5 17.7467 6.75329 22 12 22Z" stroke="#ffffff" stroke-miterlimit="10" stroke-linecap="round" stroke-linejoin="round"/> </g>
</svg>